<svg width="67" height="67" viewBox="0 0 67 67" fill="none" xmlns="http://www.w3.org/2000/svg">
<path d="M35.3549 30.709C35.3969 30.709 35.245 30.7284 35.245 30.9287C35.245 31.1216 35.2427 31.2072 35.3793 31.3438C35.4621 31.4266 35.6573 31.5857 35.6845 31.3682C35.6944 31.2885 35.9664 31.0799 35.8432 31.0447C35.5307 30.9554 35.0764 31.0386 34.7506 31.0386C34.3512 31.0386 34.7514 31.5879 35.0252 31.5879" stroke="black" stroke-width="1.41319" stroke-linecap="round"/>
<path d="M27.5273 34.0781C27.5273 34.9845 27.6965 35.8186 27.7447 36.6862C27.8167 37.9829 29.0518 39.406 29.9181 40.2723C31.1392 41.4934 32.3656 42.5209 34.0234 43.0735C35.2991 43.4988 36.5103 43.5324 37.8509 43.5324C38.9223 43.5324 39.9602 42.7006 40.7367 42.0653C41.4361 41.4931 42.1153 40.9448 42.6807 40.2179C43.3351 39.3765 43.8371 38.3129 44.1537 37.2839C44.4183 36.424 44.9144 35.4999 44.9144 34.6215" stroke="black" stroke-width="1.41319" stroke-linecap="round"/>
<path d="M22.5862 23.6147C22.5862 24.8228 22.53 26.0111 22.53 27.2139C22.53 27.6807 22.9296 28.0071 23.2361 28.3136C23.6599 28.7374 24.2578 28.9957 24.8232 29.1697C25.675 29.4317 26.6056 29.3509 27.507 29.3509C27.9989 29.3509 28.3206 28.8052 28.6599 28.5386C29.1437 28.1584 29.2068 27.4207 29.5034 26.9202C29.9241 26.2103 30.1783 25.1309 30.1783 24.3176C30.1783 23.8677 30.1783 23.4178 30.1783 22.9679C30.1783 22.8584 30.2376 22.5462 30.0939 22.5462C29.8596 22.5462 29.6253 22.5462 29.391 22.5462C28.4561 22.5462 27.5493 22.4751 26.6353 22.2775C26.2481 22.1937 25.7672 22.265 25.37 22.265C24.9874 22.265 24.599 22.2438 24.2171 22.265C23.8991 22.2826 23.5382 22.4337 23.233 22.4337C22.4418 22.4337 23.3451 23.9686 23.4267 24.2083C23.5963 24.7064 23.6659 25.2425 23.8797 25.7236C23.9715 25.9301 23.9922 25.1109 23.9922 25.0081C23.9922 24.7259 24.0825 23.317 24.5108 23.3335C24.7405 23.3423 24.8556 23.7012 24.9482 23.8709C25.1216 24.1887 25.3223 24.5019 25.4543 24.8394C25.5108 24.9836 25.5631 25.1253 25.6199 25.2674C25.6749 25.4047 25.6231 24.9717 25.6231 24.8238C25.6231 24.3204 25.458 23.4878 25.7043 23.0304C25.896 22.6744 26.4788 23.5587 26.5853 23.6772C26.9413 24.0726 27.3263 24.4419 27.6788 24.8394C27.8524 25.035 28.0335 25.257 28.2631 25.3861C28.5421 25.5431 28.4912 25.3582 28.4912 25.1206C28.4912 24.7849 28.5753 23.6178 29.0535 23.6709C29.3702 23.7061 29.7907 24.8108 29.8846 25.0643C29.9716 25.2992 29.941 24.9882 29.9221 24.9019C29.8322 24.4909 29.7175 24.0914 29.5847 23.6928C29.5714 23.6529 29.271 22.6209 29.0254 22.9211C28.8157 23.1774 28.7243 23.6087 28.5911 23.9084C28.3146 24.5305 28.0836 25.1712 27.8194 25.7986C27.5095 26.5347 27.1394 27.6581 26.2292 27.82C25.2095 28.0012 24.7322 26.3935 24.4983 25.6642C24.3947 25.3412 24.386 25.0121 24.3046 24.6863C24.2748 24.567 24.5246 25.0678 24.5545 25.1331C24.7604 25.5812 24.7928 26.1089 24.8888 26.589C24.941 26.8496 24.9889 27.1176 25.0044 27.3826C25.0261 27.7508 25.2245 26.6767 25.3731 26.3391C25.587 25.853 25.9472 25.2026 26.3229 24.8269C26.5762 24.5736 26.7642 24.792 26.9728 25.0237C27.3752 25.4709 27.697 25.942 27.9007 26.5078C27.9564 26.6625 28.0074 26.8213 27.985 26.9889C27.9783 27.0391 27.6814 26.4746 27.6601 26.4015C27.3444 25.3209 27.4065 21.9252 27.6507 23.0242C27.9587 24.41 28.21 25.9112 28.21 27.3388C28.21 27.9454 28.0863 28.4522 27.4039 28.6073C26.976 28.7045 26.5963 28.8505 26.1479 28.8447C25.5732 28.8374 24.8003 28.6311 24.3015 28.3355C23.5081 27.8653 23.3736 27.191 23.3736 26.3422C23.3736 26.2391 23.3736 26.136 23.3736 26.0329C23.3736 25.9479 23.2813 25.7698 23.3486 25.9235C23.5652 26.4188 23.99 26.9659 24.4546 27.2576C25.0627 27.6394 25.5132 27.1796 25.9042 26.7202C26.0695 26.5261 26.5074 26.3117 26.5229 26.0329C26.528 25.9403 26.6916 25.5353 26.6916 25.8204C26.6916 26.4536 26.6916 27.0868 26.6916 27.72C26.6916 28.3693 26.7472 29.0015 26.576 29.6008C26.4197 30.1477 25.5721 30.1382 25.1294 30.1382C24.639 30.1382 24.3305 29.9603 23.9797 29.6446C23.6667 29.3629 23.2766 29.2141 23.0111 28.8729C22.3962 28.0823 21.574 27.0347 21.574 25.9766C21.574 24.608 21.6302 23.2454 21.6302 21.8713C21.6302 21.6154 21.8717 21.7026 22.0832 21.7026C22.63 21.7026 23.1767 21.7026 23.7235 21.7026C24.6486 21.7026 25.5668 21.7588 26.4947 21.7588C27.2632 21.7588 28.0007 21.8713 28.7692 21.8713C29.4777 21.8713 30.1462 21.8886 30.8406 22.0275C31.4073 22.1409 31.5842 22.202 31.5842 22.7836C31.5842 23.5822 31.5727 24.344 31.4155 25.13C31.2658 25.8783 30.963 26.5694 30.7407 27.292C30.6168 27.6944 30.2032 28.0388 29.9971 28.3948C29.8359 28.6733 29.2733 29.1472 28.9411 29.1822C28.6401 29.2138 28.3339 29.3567 28.0413 29.4321C27.5914 29.548 27.1448 29.7001 26.6916 29.8008C25.8649 29.9845 24.9516 29.9695 24.1046 29.9695C23.6311 29.9695 23.155 29.9386 22.6987 29.9133C22.1938 29.8852 21.9382 29.4708 21.6739 29.1009C21.4678 28.8123 21.3467 28.442 21.1241 28.1699C20.9224 27.9234 20.8993 27.4058 20.8148 27.1014C20.6396 26.471 20.6179 25.8503 20.6179 25.1956C20.6179 24.5642 20.5617 23.9182 20.5617 23.2772C20.5617 22.8742 20.5617 22.4712 20.5617 22.0681C20.5617 21.8994 20.5617 21.7307 20.5617 21.562C20.5617 21.3815 20.4492 21.2437 20.4492 21.084" stroke="black" stroke-width="1.78894" stroke-linecap="round"/>
<path d="M49.2497 23.6147C49.2497 24.8228 49.3059 26.0111 49.3059 27.2139C49.3059 27.6807 48.9064 28.0071 48.5998 28.3136C48.176 28.7374 47.5781 28.9957 47.0127 29.1697C46.161 29.4317 45.2304 29.3509 44.3289 29.3509C43.837 29.3509 43.5154 28.8052 43.1761 28.5386C42.6922 28.1584 42.6291 27.4207 42.3325 26.9202C41.9118 26.2103 41.6577 25.1309 41.6577 24.3176C41.6577 23.8677 41.6577 23.4178 41.6577 22.9679C41.6577 22.8584 41.5983 22.5462 41.742 22.5462C41.9763 22.5462 42.2107 22.5462 42.445 22.5462C43.3798 22.5462 44.2867 22.4751 45.2006 22.2775C45.5879 22.1937 46.0687 22.265 46.4659 22.265C46.8485 22.265 47.2369 22.2438 47.6188 22.265C47.9368 22.2826 48.2977 22.4337 48.603 22.4337C49.3941 22.4337 48.4908 23.9686 48.4093 24.2083C48.2397 24.7064 48.17 25.2425 47.9562 25.7236C47.8644 25.9301 47.8438 25.1109 47.8438 25.0081C47.8438 24.7259 47.7534 23.317 47.3251 23.3335C47.0955 23.3423 46.9803 23.7012 46.8877 23.8709C46.7143 24.1887 46.5136 24.5019 46.3816 24.8394C46.3252 24.9836 46.2729 25.1253 46.216 25.2674C46.1611 25.4047 46.2129 24.9717 46.2129 24.8238C46.2129 24.3204 46.3779 23.4878 46.1316 23.0304C45.9399 22.6744 45.3572 23.5587 45.2506 23.6772C44.8947 24.0726 44.5097 24.4419 44.1571 24.8394C43.9835 25.035 43.8025 25.257 43.5728 25.3861C43.2938 25.5431 43.3448 25.3582 43.3448 25.1206C43.3448 24.7849 43.2606 23.6178 42.7824 23.6709C42.4658 23.7061 42.0452 24.8108 41.9513 25.0643C41.8644 25.2992 41.895 24.9882 41.9138 24.9019C42.0037 24.4909 42.1184 24.0914 42.2513 23.6928C42.2646 23.6529 42.5649 22.6209 42.8105 22.9211C43.0202 23.1774 43.1116 23.6087 43.2448 23.9084C43.5213 24.5305 43.7524 25.1712 44.0165 25.7986C44.3265 26.5347 44.6965 27.6581 45.6068 27.82C46.6264 28.0012 47.1037 26.3935 47.3376 25.6642C47.4412 25.3412 47.4499 25.0121 47.5313 24.6863C47.5612 24.567 47.3114 25.0678 47.2814 25.1331C47.0755 25.5812 47.0431 26.1089 46.9471 26.589C46.895 26.8496 46.8471 27.1176 46.8315 27.3826C46.8098 27.7508 46.6114 26.6767 46.4628 26.3391C46.249 25.853 45.8888 25.2026 45.513 24.8269C45.2597 24.5736 45.0717 24.792 44.8632 25.0237C44.4607 25.4709 44.1389 25.942 43.9353 26.5078C43.8796 26.6625 43.8286 26.8213 43.8509 26.9889C43.8576 27.0391 44.1545 26.4746 44.1758 26.4015C44.4915 25.3209 44.4294 21.9252 44.1852 23.0242C43.8772 24.41 43.626 25.9112 43.626 27.3388C43.626 27.9454 43.7497 28.4522 44.432 28.6073C44.8599 28.7045 45.2397 28.8505 45.688 28.8447C46.2627 28.8374 47.0356 28.6311 47.5345 28.3355C48.3279 27.8653 48.4624 27.191 48.4624 26.3422C48.4624 26.2391 48.4624 26.136 48.4624 26.0329C48.4624 25.9479 48.5546 25.7698 48.4874 25.9235C48.2707 26.4188 47.846 26.9659 47.3814 27.2576C46.7733 27.6394 46.3227 27.1796 45.9317 26.7202C45.7665 26.5261 45.3286 26.3117 45.3131 26.0329C45.3079 25.9403 45.1444 25.5353 45.1444 25.8204C45.1444 26.4536 45.1444 27.0868 45.1444 27.72C45.1444 28.3693 45.0887 29.0015 45.26 29.6008C45.4162 30.1477 46.2638 30.1382 46.7065 30.1382C47.1969 30.1382 47.5055 29.9603 47.8563 29.6446C48.1692 29.3629 48.5594 29.2141 48.8248 28.8729C49.4397 28.0823 50.262 27.0347 50.262 25.9766C50.262 24.608 50.2057 23.2454 50.2057 21.8713C50.2057 21.6154 49.9642 21.7026 49.7527 21.7026C49.206 21.7026 48.6592 21.7026 48.1125 21.7026C47.1873 21.7026 46.2692 21.7588 45.3412 21.7588C44.5728 21.7588 43.8352 21.8713 43.0667 21.8713C42.3583 21.8713 41.6897 21.8886 40.9953 22.0275C40.4286 22.1409 40.2517 22.202 40.2517 22.7836C40.2517 23.5822 40.2632 24.344 40.4204 25.13C40.5701 25.8783 40.8729 26.5694 41.0953 27.292C41.2191 27.6944 41.6327 28.0388 41.8389 28.3948C42.0001 28.6733 42.5627 29.1472 42.8949 29.1822C43.1958 29.2138 43.502 29.3567 43.7947 29.4321C44.2446 29.548 44.6911 29.7001 45.1444 29.8008C45.9711 29.9845 46.8843 29.9695 47.7313 29.9695C48.2048 29.9695 48.6809 29.9386 49.1372 29.9133C49.6422 29.8852 49.8978 29.4708 50.162 29.1009C50.3682 28.8123 50.4892 28.442 50.7119 28.1699C50.9135 27.9234 50.9366 27.4058 51.0212 27.1014C51.1963 26.471 51.218 25.8503 51.218 25.1956C51.218 24.5642 51.2742 23.9182 51.2742 23.2772C51.2742 22.8742 51.2742 22.4712 51.2742 22.0681C51.2742 21.8994 51.2742 21.7307 51.2742 21.562C51.2742 21.3815 51.3867 21.2437 51.3867 21.084" stroke="black" stroke-width="1.78894" stroke-linecap="round"/>
<path d="M31.5312 22.2656H40.0231" stroke="black" stroke-width="1.78894" stroke-linecap="round"/>
<path d="M50.9922 22.041H59.1466" stroke="black" stroke-width="1.78894" stroke-linecap="round"/>
<path d="M12.8594 21.5918H20.7326" stroke="black" stroke-width="1.78894" stroke-linecap="round"/>
<path d="M57.5654 16.4003C58.389 17.3447 59.2232 18.247 60.0269 19.2227C61.2584 20.7177 62.1517 22.9645 62.476 25.01C62.8865 27.5985 63.3836 29.8343 63.3836 32.5078C63.3836 34.6222 63.3836 36.7366 63.3836 38.8509C63.3836 41.4777 60.7477 41.0319 59.2437 41.0319C57.1989 41.0319 55.6274 41.3355 54.0347 39.692C51.3842 36.9569 52.078 36.3614 52.078 32.5078M57.5654 16.4003C56.0712 15.5709 52.9297 13.8407 52.3178 13.5552C51.7059 13.2696 55.5612 15.333 57.5654 16.4003Z" stroke="black" stroke-width="1.41319" stroke-linecap="round"/>
<path d="M19.5115 12.4903C17.7088 12.4903 15.657 12.0703 14.242 13.4067C12.2983 15.2425 10.5458 17.4363 9.07432 19.6436C7.99824 21.2577 7.4734 22.7408 6.85959 24.5822C6.34638 26.1218 6.27565 27.8471 5.87951 29.4317C5.47746 31.0399 5.07762 32.8276 5.07762 34.4848C5.07762 37.5236 4.70587 40.6118 7.64874 42.5037C8.2804 42.9097 10.2075 43.7173 10.6908 42.8473C11.2597 41.8233 11.3799 40.5754 11.9509 39.5761C12.6489 38.3547 13.1386 36.7331 13.6565 35.4013C13.9145 34.7378 14.3943 33.8016 14.4711 33.1102C14.5855 32.0803 15.9058 29.6372 14.9293 28.9862" stroke="black" stroke-width="1.41319" stroke-linecap="round"/>
<path d="M19.2891 12.2617C20.7825 12.2617 22.276 12.2617 23.7694 12.2617C25.1713 12.2617 26.4797 12.7199 27.8934 12.7199C29.9207 12.7199 31.8451 13.1782 33.9012 13.1782C35.9971 13.1782 38.093 13.1782 40.189 13.1782C43.0874 13.1782 45.8583 12.949 48.7297 12.949C49.9128 12.949 51.2773 13.0542 52.2809 13.5855" stroke="black" stroke-width="1.41319" stroke-linecap="round"/>
<path d="M54.662 40.1196C54.662 42.4849 54.5567 42.7926 53.7594 45.025C53.0828 46.9194 51.8639 48.6388 50.4373 50.0655C48.6409 51.8619 46.5828 52.9758 44.0222 53.2603C40.9778 53.5985 37.3693 54.2769 34.2978 53.7185C28.6997 52.7006 22.1934 52.1484 17.5473 48.3471C16.8055 47.7402 16.2212 47.0314 15.7908 46.1706C15.3192 45.2275 14.725 44.4241 14.2379 43.4213C13.3994 41.6948 12.8633 40.2552 12.8633 38.3809" stroke="black" stroke-width="1.41319" stroke-linecap="round"/>
</svg>
